<svg viewBox="0 0 122.03 24" xmlns="http://www.w3.org/2000/svg"><g fill="#4c3272"><path d="m.35 24c-.24 0-.35-.14-.35-.38v-17.42c0-.24.11-.38.35-.38h1.12c.24 0 .35.14.35.38l.05 2.19a5.52 5.52 0 0 1 5-2.89c3.84 0 6.46 3 6.46 6.87s-2.62 6.87-6.46 6.87a5.49 5.49 0 0 1 -5-2.75v7.13c0 .24-.1.38-.34.38zm11.14-11.63a4.76 4.76 0 0 0 -4.86-5.08c-2.78 0-4.73 2.09-4.73 5.14s2 5 4.73 5a4.74 4.74 0 0 0 4.86-5.06z"/><path d="m16.34 18.92c-.24 0-.34-.13-.34-.37v-12.35c0-.24.1-.38.34-.38h1.13c.26 0 .37.11.37.41l.05 1.49a3.14 3.14 0 0 1 3-2.22 2.3 2.3 0 0 1 1.21.27.45.45 0 0 1 .21.46v.9c0 .3-.19.35-.48.27a3.06 3.06 0 0 0 -.94-.13c-2.35 0-3 2.11-3 3.58v7.7c0 .24-.11.37-.35.37z"/><path d="m23.2 12.37a6.7 6.7 0 1 1 13.39 0 6.7 6.7 0 1 1 -13.39 0zm11.52 0a4.83 4.83 0 1 0 -9.65 0 4.83 4.83 0 1 0 9.65 0z"/><path d="m38.52 12.37c0-3.9 2.62-6.87 6.44-6.87a5.49 5.49 0 0 1 5 2.81v-7.19c0-.24.1-.37.34-.37h1.23c.24 0 .35.13.35.37v17.43c0 .24-.11.37-.35.37h-1.15c-.24 0-.35-.13-.35-.37l-.03-2.14a5.4 5.4 0 0 1 -5 2.83c-3.86 0-6.48-2.94-6.48-6.87zm11.48.06c0-3-1.95-5.13-4.76-5.14a4.75 4.75 0 0 0 -4.83 5.08 4.74 4.74 0 0 0 4.83 5.08c2.76 0 4.76-2 4.76-5.02z"/><path d="m55.14 13.9v-7.7c0-.24.1-.37.34-.37h1.23c.24 0 .35.13.35.37v7.51c0 2.32 1.2 3.74 3.37 3.74a3.6 3.6 0 0 0 3.82-3.74v-7.51c0-.24.08-.37.32-.37h1.26c.24 0 .35.13.35.37v12.35c0 .24-.11.37-.35.37h-1.15c-.27 0-.38-.11-.38-.4v-1.68a4.78 4.78 0 0 1 -4.36 2.4c-2.88 0-4.8-1.87-4.8-5.34z"/><path d="m68.79 12.37a6.68 6.68 0 0 1 6.82-6.86 6.12 6.12 0 0 1 4.89 2.19c.16.21.21.37 0 .53l-.69.64a.39.39 0 0 1 -.62 0 4.47 4.47 0 0 0 -3.5-1.57 4.87 4.87 0 0 0 -5 5.07 4.88 4.88 0 0 0 5 5.08 4.49 4.49 0 0 0 3.53-1.52c.19-.19.4-.3.64-.06l.7.65c.16.16.11.32-.06.53a6.15 6.15 0 0 1 -4.91 2.19 6.69 6.69 0 0 1 -6.8-6.87z"/><path d="m82 12.32a6.48 6.48 0 0 1 6.58-6.81 6 6 0 0 1 6.12 6.2c0 1-.19 1.36-1 1.36h-9.79a4.84 4.84 0 0 0 5.22 4.54 5.86 5.86 0 0 0 3.76-1.25.27.27 0 0 1 .4 0l.46.62c.19.24.08.37-.11.56a7 7 0 0 1 -11.64-5.22zm11-.75a4.23 4.23 0 0 0 -4.44-4.35 4.51 4.51 0 0 0 -4.68 4.35z"/><path d="m96.77 13.74a5.42 5.42 0 0 1 3.64-5.19 4.33 4.33 0 0 1 -2.54-4 4.82 4.82 0 0 1 9.62 0 4.33 4.33 0 0 1 -2.54 4 5.37 5.37 0 0 1 3.64 5.19c0 3.26-2.59 5.53-5.91 5.53s-5.91-2.27-5.91-5.53zm10-.11a4 4 0 0 0 -8.07 0 4 4 0 0 0 8.07 0zm-.94-9a3.1 3.1 0 0 0 -6.2 0 3.1 3.1 0 1 0 6.2 0z"/></g><path d="m122 6.1-6.37-1.22a2.07 2.07 0 0 0 -.35 0 1.29 1.29 0 0 1 .07-.43l1.16-3.69a.79.79 0 0 1 .68.22l4.6 4.61a.79.79 0 0 1 .21.51z" fill="#ffd582"/><path d="m111.44 5.59 4.56-4.59a.79.79 0 0 1 .47-.22l-1.13 3.66a1.29 1.29 0 0 0 -.07.43 2.13 2.13 0 0 0 -.44.07l-3.66 1.13a.78.78 0 0 1 .27-.48z" fill="#f2a13c"/><path d="m122 6.1a.85.85 0 0 1 -.24.64l-4.6 4.6a.81.81 0 0 1 -.64.23l-1.18-6.37a1.34 1.34 0 0 1 0-.35 2.07 2.07 0 0 1 .35 0z" fill="#f2a13c"/><path d="m116.55 11.57a.85.85 0 0 1 -.51-.23l-4.6-4.6a.82.82 0 0 1 -.23-.69l3.66-1.13a2.13 2.13 0 0 1 .44-.07 1.34 1.34 0 0 0 0 .35z" fill="#e56b2e"/></svg>